solid OpenSCAD_Model
  facet normal 0.997859 0.065402 0
    outer loop
      vertex 8 0 3
      vertex 7.93156 1.04421 0
      vertex 7.93156 1.04421 3
    endloop
  endfacet
  facet normal 0.997859 0.065402 0
    outer loop
      vertex 7.93156 1.04421 0
      vertex 8 0 3
      vertex 8 0 0
    endloop
  endfacet
  facet normal 0.980786 0.195089 0
    outer loop
      vertex 7.93156 1.04421 3
      vertex 7.72741 2.07055 0
      vertex 7.72741 2.07055 3
    endloop
  endfacet
  facet normal 0.980786 0.195089 0
    outer loop
      vertex 7.72741 2.07055 0
      vertex 7.93156 1.04421 3
      vertex 7.93156 1.04421 0
    endloop
  endfacet
  facet normal 0.946931 0.321438 0
    outer loop
      vertex 7.72741 2.07055 3
      vertex 7.39104 3.06147 0
      vertex 7.39104 3.06147 3
    endloop
  endfacet
  facet normal 0.946931 0.321438 0
    outer loop
      vertex 7.39104 3.06147 0
      vertex 7.72741 2.07055 3
      vertex 7.72741 2.07055 0
    endloop
  endfacet
  facet normal 0.89687 0.442295 0
    outer loop
      vertex 7.39104 3.06147 3
      vertex 6.9282 4 0
      vertex 6.9282 4 3
    endloop
  endfacet
  facet normal 0.89687 0.442295 0
    outer loop
      vertex 6.9282 4 0
      vertex 7.39104 3.06147 3
      vertex 7.39104 3.06147 0
    endloop
  endfacet
  facet normal 0.831472 0.555567 0
    outer loop
      vertex 6.9282 4 3
      vertex 6.34683 4.87009 0
      vertex 6.34683 4.87009 3
    endloop
  endfacet
  facet normal 0.831472 0.555567 0
    outer loop
      vertex 6.34683 4.87009 0
      vertex 6.9282 4 3
      vertex 6.9282 4 0
    endloop
  endfacet
  facet normal 0.751835 0.659351 0
    outer loop
      vertex 6.34683 4.87009 3
      vertex 5.65685 5.65685 0
      vertex 5.65685 5.65685 3
    endloop
  endfacet
  facet normal 0.751835 0.659351 0
    outer loop
      vertex 5.65685 5.65685 0
      vertex 6.34683 4.87009 3
      vertex 6.34683 4.87009 0
    endloop
  endfacet
  facet normal 0.659351 0.751835 -0
    outer loop
      vertex 5.65685 5.65685 0
      vertex 4.87009 6.34683 3
      vertex 5.65685 5.65685 3
    endloop
  endfacet
  facet normal 0.659351 0.751835 0
    outer loop
      vertex 4.87009 6.34683 3
      vertex 5.65685 5.65685 0
      vertex 4.87009 6.34683 0
    endloop
  endfacet
  facet normal 0.555567 0.831472 -0
    outer loop
      vertex 4.87009 6.34683 0
      vertex 4 6.9282 3
      vertex 4.87009 6.34683 3
    endloop
  endfacet
  facet normal 0.555567 0.831472 0
    outer loop
      vertex 4 6.9282 3
      vertex 4.87009 6.34683 0
      vertex 4 6.9282 0
    endloop
  endfacet
  facet normal 0.442295 0.89687 -0
    outer loop
      vertex 4 6.9282 0
      vertex 3.06147 7.39104 3
      vertex 4 6.9282 3
    endloop
  endfacet
  facet normal 0.442295 0.89687 0
    outer loop
      vertex 3.06147 7.39104 3
      vertex 4 6.9282 0
      vertex 3.06147 7.39104 0
    endloop
  endfacet
  facet normal 0.321438 0.946931 -0
    outer loop
      vertex 3.06147 7.39104 0
      vertex 2.07055 7.72741 3
      vertex 3.06147 7.39104 3
    endloop
  endfacet
  facet normal 0.321438 0.946931 0
    outer loop
      vertex 2.07055 7.72741 3
      vertex 3.06147 7.39104 0
      vertex 2.07055 7.72741 0
    endloop
  endfacet
  facet normal 0.195089 0.980786 -0
    outer loop
      vertex 2.07055 7.72741 0
      vertex 1.04421 7.93156 3
      vertex 2.07055 7.72741 3
    endloop
  endfacet
  facet normal 0.195089 0.980786 0
    outer loop
      vertex 1.04421 7.93156 3
      vertex 2.07055 7.72741 0
      vertex 1.04421 7.93156 0
    endloop
  endfacet
  facet normal 0.065402 0.997859 -0
    outer loop
      vertex 1.04421 7.93156 0
      vertex 0 8 3
      vertex 1.04421 7.93156 3
    endloop
  endfacet
  facet normal 0.065402 0.997859 0
    outer loop
      vertex 0 8 3
      vertex 1.04421 7.93156 0
      vertex 0 8 0
    endloop
  endfacet
  facet normal -0.065402 0.997859 0
    outer loop
      vertex 0 8 0
      vertex -1.04421 7.93156 3
      vertex 0 8 3
    endloop
  endfacet
  facet normal -0.065402 0.997859 0
    outer loop
      vertex -1.04421 7.93156 3
      vertex 0 8 0
      vertex -1.04421 7.93156 0
    endloop
  endfacet
  facet normal -0.195089 0.980786 0
    outer loop
      vertex -1.04421 7.93156 0
      vertex -2.07055 7.72741 3
      vertex -1.04421 7.93156 3
    endloop
  endfacet
  facet normal -0.195089 0.980786 0
    outer loop
      vertex -2.07055 7.72741 3
      vertex -1.04421 7.93156 0
      vertex -2.07055 7.72741 0
    endloop
  endfacet
  facet normal -0.321438 0.946931 0
    outer loop
      vertex -2.07055 7.72741 0
      vertex -3.06147 7.39104 3
      vertex -2.07055 7.72741 3
    endloop
  endfacet
  facet normal -0.321438 0.946931 0
    outer loop
      vertex -3.06147 7.39104 3
      vertex -2.07055 7.72741 0
      vertex -3.06147 7.39104 0
    endloop
  endfacet
  facet normal -0.442295 0.89687 0
    outer loop
      vertex -3.06147 7.39104 0
      vertex -4 6.9282 3
      vertex -3.06147 7.39104 3
    endloop
  endfacet
  facet normal -0.442295 0.89687 0
    outer loop
      vertex -4 6.9282 3
      vertex -3.06147 7.39104 0
      vertex -4 6.9282 0
    endloop
  endfacet
  facet normal -0.555567 0.831472 0
    outer loop
      vertex -4 6.9282 0
      vertex -4.87009 6.34683 3
      vertex -4 6.9282 3
    endloop
  endfacet
  facet normal -0.555567 0.831472 0
    outer loop
      vertex -4.87009 6.34683 3
      vertex -4 6.9282 0
      vertex -4.87009 6.34683 0
    endloop
  endfacet
  facet normal -0.659351 0.751835 0
    outer loop
      vertex -4.87009 6.34683 0
      vertex -5.65685 5.65685 3
      vertex -4.87009 6.34683 3
    endloop
  endfacet
  facet normal -0.659351 0.751835 0
    outer loop
      vertex -5.65685 5.65685 3
      vertex -4.87009 6.34683 0
      vertex -5.65685 5.65685 0
    endloop
  endfacet
  facet normal -0.751835 0.659351 0
    outer loop
      vertex -6.34683 4.87009 0
      vertex -5.65685 5.65685 3
      vertex -5.65685 5.65685 0
    endloop
  endfacet
  facet normal -0.751835 0.659351 0
    outer loop
      vertex -5.65685 5.65685 3
      vertex -6.34683 4.87009 0
      vertex -6.34683 4.87009 3
    endloop
  endfacet
  facet normal -0.831472 0.555567 0
    outer loop
      vertex -6.9282 4 0
      vertex -6.34683 4.87009 3
      vertex -6.34683 4.87009 0
    endloop
  endfacet
  facet normal -0.831472 0.555567 0
    outer loop
      vertex -6.34683 4.87009 3
      vertex -6.9282 4 0
      vertex -6.9282 4 3
    endloop
  endfacet
  facet normal -0.89687 0.442295 0
    outer loop
      vertex -7.39104 3.06147 0
      vertex -6.9282 4 3
      vertex -6.9282 4 0
    endloop
  endfacet
  facet normal -0.89687 0.442295 0
    outer loop
      vertex -6.9282 4 3
      vertex -7.39104 3.06147 0
      vertex -7.39104 3.06147 3
    endloop
  endfacet
  facet normal -0.946931 0.321438 0
    outer loop
      vertex -7.72741 2.07055 0
      vertex -7.39104 3.06147 3
      vertex -7.39104 3.06147 0
    endloop
  endfacet
  facet normal -0.946931 0.321438 0
    outer loop
      vertex -7.39104 3.06147 3
      vertex -7.72741 2.07055 0
      vertex -7.72741 2.07055 3
    endloop
  endfacet
  facet normal -0.980786 0.195089 0
    outer loop
      vertex -7.93156 1.04421 0
      vertex -7.72741 2.07055 3
      vertex -7.72741 2.07055 0
    endloop
  endfacet
  facet normal -0.980786 0.195089 0
    outer loop
      vertex -7.72741 2.07055 3
      vertex -7.93156 1.04421 0
      vertex -7.93156 1.04421 3
    endloop
  endfacet
  facet normal -0.997859 0.065402 0
    outer loop
      vertex -8 -0 0
      vertex -7.93156 1.04421 3
      vertex -7.93156 1.04421 0
    endloop
  endfacet
  facet normal -0.997859 0.065402 0
    outer loop
      vertex -7.93156 1.04421 3
      vertex -8 -0 0
      vertex -8 -0 3
    endloop
  endfacet
  facet normal -0.997859 -0.065402 0
    outer loop
      vertex -7.93156 -1.04421 0
      vertex -8 -0 3
      vertex -8 -0 0
    endloop
  endfacet
  facet normal -0.997859 -0.065402 0
    outer loop
      vertex -8 -0 3
      vertex -7.93156 -1.04421 0
      vertex -7.93156 -1.04421 3
    endloop
  endfacet
  facet normal -0.980786 -0.195089 0
    outer loop
      vertex -7.72741 -2.07055 0
      vertex -7.93156 -1.04421 3
      vertex -7.93156 -1.04421 0
    endloop
  endfacet
  facet normal -0.980786 -0.195089 0
    outer loop
      vertex -7.93156 -1.04421 3
      vertex -7.72741 -2.07055 0
      vertex -7.72741 -2.07055 3
    endloop
  endfacet
  facet normal -0.946931 -0.321438 0
    outer loop
      vertex -7.39104 -3.06147 0
      vertex -7.72741 -2.07055 3
      vertex -7.72741 -2.07055 0
    endloop
  endfacet
  facet normal -0.946931 -0.321438 0
    outer loop
      vertex -7.72741 -2.07055 3
      vertex -7.39104 -3.06147 0
      vertex -7.39104 -3.06147 3
    endloop
  endfacet
  facet normal -0.89687 -0.442295 0
    outer loop
      vertex -6.9282 -4 0
      vertex -7.39104 -3.06147 3
      vertex -7.39104 -3.06147 0
    endloop
  endfacet
  facet normal -0.89687 -0.442295 0
    outer loop
      vertex -7.39104 -3.06147 3
      vertex -6.9282 -4 0
      vertex -6.9282 -4 3
    endloop
  endfacet
  facet normal -0.831472 -0.555567 0
    outer loop
      vertex -6.34683 -4.87009 0
      vertex -6.9282 -4 3
      vertex -6.9282 -4 0
    endloop
  endfacet
  facet normal -0.831472 -0.555567 0
    outer loop
      vertex -6.9282 -4 3
      vertex -6.34683 -4.87009 0
      vertex -6.34683 -4.87009 3
    endloop
  endfacet
  facet normal -0.751835 -0.659351 0
    outer loop
      vertex -5.65685 -5.65685 0
      vertex -6.34683 -4.87009 3
      vertex -6.34683 -4.87009 0
    endloop
  endfacet
  facet normal -0.751835 -0.659351 0
    outer loop
      vertex -6.34683 -4.87009 3
      vertex -5.65685 -5.65685 0
      vertex -5.65685 -5.65685 3
    endloop
  endfacet
  facet normal -0.659351 -0.751835 0
    outer loop
      vertex -5.65685 -5.65685 0
      vertex -4.87009 -6.34683 3
      vertex -5.65685 -5.65685 3
    endloop
  endfacet
  facet normal -0.659351 -0.751835 -0
    outer loop
      vertex -4.87009 -6.34683 3
      vertex -5.65685 -5.65685 0
      vertex -4.87009 -6.34683 0
    endloop
  endfacet
  facet normal -0.555567 -0.831472 0
    outer loop
      vertex -4.87009 -6.34683 0
      vertex -4 -6.9282 3
      vertex -4.87009 -6.34683 3
    endloop
  endfacet
  facet normal -0.555567 -0.831472 -0
    outer loop
      vertex -4 -6.9282 3
      vertex -4.87009 -6.34683 0
      vertex -4 -6.9282 0
    endloop
  endfacet
  facet normal -0.442295 -0.89687 0
    outer loop
      vertex -4 -6.9282 0
      vertex -3.06147 -7.39104 3
      vertex -4 -6.9282 3
    endloop
  endfacet
  facet normal -0.442295 -0.89687 -0
    outer loop
      vertex -3.06147 -7.39104 3
      vertex -4 -6.9282 0
      vertex -3.06147 -7.39104 0
    endloop
  endfacet
  facet normal -0.321438 -0.946931 0
    outer loop
      vertex -3.06147 -7.39104 0
      vertex -2.07055 -7.72741 3
      vertex -3.06147 -7.39104 3
    endloop
  endfacet
  facet normal -0.321438 -0.946931 -0
    outer loop
      vertex -2.07055 -7.72741 3
      vertex -3.06147 -7.39104 0
      vertex -2.07055 -7.72741 0
    endloop
  endfacet
  facet normal -0.195089 -0.980786 0
    outer loop
      vertex -2.07055 -7.72741 0
      vertex -1.04421 -7.93156 3
      vertex -2.07055 -7.72741 3
    endloop
  endfacet
  facet normal -0.195089 -0.980786 -0
    outer loop
      vertex -1.04421 -7.93156 3
      vertex -2.07055 -7.72741 0
      vertex -1.04421 -7.93156 0
    endloop
  endfacet
  facet normal -0.065402 -0.997859 0
    outer loop
      vertex -1.04421 -7.93156 0
      vertex -0 -8 3
      vertex -1.04421 -7.93156 3
    endloop
  endfacet
  facet normal -0.065402 -0.997859 -0
    outer loop
      vertex -0 -8 3
      vertex -1.04421 -7.93156 0
      vertex -0 -8 0
    endloop
  endfacet
  facet normal 0.065402 -0.997859 0
    outer loop
      vertex -0 -8 0
      vertex 1.04421 -7.93156 3
      vertex -0 -8 3
    endloop
  endfacet
  facet normal 0.065402 -0.997859 0
    outer loop
      vertex 1.04421 -7.93156 3
      vertex -0 -8 0
      vertex 1.04421 -7.93156 0
    endloop
  endfacet
  facet normal 0.195089 -0.980786 0
    outer loop
      vertex 1.04421 -7.93156 0
      vertex 2.07055 -7.72741 3
      vertex 1.04421 -7.93156 3
    endloop
  endfacet
  facet normal 0.195089 -0.980786 0
    outer loop
      vertex 2.07055 -7.72741 3
      vertex 1.04421 -7.93156 0
      vertex 2.07055 -7.72741 0
    endloop
  endfacet
  facet normal 0.321438 -0.946931 0
    outer loop
      vertex 2.07055 -7.72741 0
      vertex 3.06147 -7.39104 3
      vertex 2.07055 -7.72741 3
    endloop
  endfacet
  facet normal 0.321438 -0.946931 0
    outer loop
      vertex 3.06147 -7.39104 3
      vertex 2.07055 -7.72741 0
      vertex 3.06147 -7.39104 0
    endloop
  endfacet
  facet normal 0.442295 -0.89687 0
    outer loop
      vertex 3.06147 -7.39104 0
      vertex 4 -6.9282 3
      vertex 3.06147 -7.39104 3
    endloop
  endfacet
  facet normal 0.442295 -0.89687 0
    outer loop
      vertex 4 -6.9282 3
      vertex 3.06147 -7.39104 0
      vertex 4 -6.9282 0
    endloop
  endfacet
  facet normal 0.555567 -0.831472 0
    outer loop
      vertex 4 -6.9282 0
      vertex 4.87009 -6.34683 3
      vertex 4 -6.9282 3
    endloop
  endfacet
  facet normal 0.555567 -0.831472 0
    outer loop
      vertex 4.87009 -6.34683 3
      vertex 4 -6.9282 0
      vertex 4.87009 -6.34683 0
    endloop
  endfacet
  facet normal 0.659351 -0.751835 0
    outer loop
      vertex 4.87009 -6.34683 0
      vertex 5.65685 -5.65685 3
      vertex 4.87009 -6.34683 3
    endloop
  endfacet
  facet normal 0.659351 -0.751835 0
    outer loop
      vertex 5.65685 -5.65685 3
      vertex 4.87009 -6.34683 0
      vertex 5.65685 -5.65685 0
    endloop
  endfacet
  facet normal 0.751835 -0.659351 0
    outer loop
      vertex 5.65685 -5.65685 3
      vertex 6.34683 -4.87009 0
      vertex 6.34683 -4.87009 3
    endloop
  endfacet
  facet normal 0.751835 -0.659351 0
    outer loop
      vertex 6.34683 -4.87009 0
      vertex 5.65685 -5.65685 3
      vertex 5.65685 -5.65685 0
    endloop
  endfacet
  facet normal 0.831472 -0.555567 0
    outer loop
      vertex 6.34683 -4.87009 3
      vertex 6.9282 -4 0
      vertex 6.9282 -4 3
    endloop
  endfacet
  facet normal 0.831472 -0.555567 0
    outer loop
      vertex 6.9282 -4 0
      vertex 6.34683 -4.87009 3
      vertex 6.34683 -4.87009 0
    endloop
  endfacet
  facet normal 0.89687 -0.442295 0
    outer loop
      vertex 6.9282 -4 3
      vertex 7.39104 -3.06147 0
      vertex 7.39104 -3.06147 3
    endloop
  endfacet
  facet normal 0.89687 -0.442295 0
    outer loop
      vertex 7.39104 -3.06147 0
      vertex 6.9282 -4 3
      vertex 6.9282 -4 0
    endloop
  endfacet
  facet normal 0.946931 -0.321438 0
    outer loop
      vertex 7.39104 -3.06147 3
      vertex 7.72741 -2.07055 0
      vertex 7.72741 -2.07055 3
    endloop
  endfacet
  facet normal 0.946931 -0.321438 0
    outer loop
      vertex 7.72741 -2.07055 0
      vertex 7.39104 -3.06147 3
      vertex 7.39104 -3.06147 0
    endloop
  endfacet
  facet normal 0.980786 -0.195089 0
    outer loop
      vertex 7.72741 -2.07055 3
      vertex 7.93156 -1.04421 0
      vertex 7.93156 -1.04421 3
    endloop
  endfacet
  facet normal 0.980786 -0.195089 0
    outer loop
      vertex 7.93156 -1.04421 0
      vertex 7.72741 -2.07055 3
      vertex 7.72741 -2.07055 0
    endloop
  endfacet
  facet normal 0.997859 -0.065402 0
    outer loop
      vertex 7.93156 -1.04421 3
      vertex 8 0 0
      vertex 8 0 3
    endloop
  endfacet
  facet normal 0.997859 -0.065402 0
    outer loop
      vertex 8 0 0
      vertex 7.93156 -1.04421 3
      vertex 7.93156 -1.04421 0
    endloop
  endfacet
  facet normal 0 0 -1
    outer loop
      vertex 7.93156 -1.04421 0
      vertex 7.93156 1.04421 0
      vertex 8 0 0
    endloop
  endfacet
  facet normal 0 0 -1
    outer loop
      vertex 7.72741 -2.07055 0
      vertex 7.93156 1.04421 0
      vertex 7.93156 -1.04421 0
    endloop
  endfacet
  facet normal 0 0 -1
    outer loop
      vertex 7.72741 -2.07055 0
      vertex 7.72741 2.07055 0
      vertex 7.93156 1.04421 0
    endloop
  endfacet
  facet normal 0 0 -1
    outer loop
      vertex 7.39104 -3.06147 0
      vertex 7.72741 2.07055 0
      vertex 7.72741 -2.07055 0
    endloop
  endfacet
  facet normal 0 0 -1
    outer loop
      vertex 7.39104 -3.06147 0
      vertex 7.39104 3.06147 0
      vertex 7.72741 2.07055 0
    endloop
  endfacet
  facet normal 0 0 -1
    outer loop
      vertex 6.9282 -4 0
      vertex 7.39104 3.06147 0
      vertex 7.39104 -3.06147 0
    endloop
  endfacet
  facet normal 0 0 -1
    outer loop
      vertex 6.9282 -4 0
      vertex 6.9282 4 0
      vertex 7.39104 3.06147 0
    endloop
  endfacet
  facet normal 0 0 -1
    outer loop
      vertex 6.34683 -4.87009 0
      vertex 6.9282 4 0
      vertex 6.9282 -4 0
    endloop
  endfacet
  facet normal 0 0 -1
    outer loop
      vertex 6.34683 -4.87009 0
      vertex 6.34683 4.87009 0
      vertex 6.9282 4 0
    endloop
  endfacet
  facet normal 0 0 -1
    outer loop
      vertex 5.65685 -5.65685 0
      vertex 6.34683 4.87009 0
      vertex 6.34683 -4.87009 0
    endloop
  endfacet
  facet normal 0 0 -1
    outer loop
      vertex 5.65685 -5.65685 0
      vertex 5.65685 5.65685 0
      vertex 6.34683 4.87009 0
    endloop
  endfacet
  facet normal 0 0 -1
    outer loop
      vertex 4.87009 -6.34683 0
      vertex 5.65685 5.65685 0
      vertex 5.65685 -5.65685 0
    endloop
  endfacet
  facet normal 0 0 -1
    outer loop
      vertex 4.87009 -6.34683 0
      vertex 4.87009 6.34683 0
      vertex 5.65685 5.65685 0
    endloop
  endfacet
  facet normal 0 0 -1
    outer loop
      vertex 4 -6.9282 0
      vertex 4.87009 6.34683 0
      vertex 4.87009 -6.34683 0
    endloop
  endfacet
  facet normal 0 0 -1
    outer loop
      vertex 4 -6.9282 0
      vertex 4 6.9282 0
      vertex 4.87009 6.34683 0
    endloop
  endfacet
  facet normal 0 0 -1
    outer loop
      vertex 3.06147 -7.39104 0
      vertex 4 6.9282 0
      vertex 4 -6.9282 0
    endloop
  endfacet
  facet normal 0 0 -1
    outer loop
      vertex 3.06147 -7.39104 0
      vertex 3.06147 7.39104 0
      vertex 4 6.9282 0
    endloop
  endfacet
  facet normal 0 0 -1
    outer loop
      vertex 2.07055 -7.72741 0
      vertex 3.06147 7.39104 0
      vertex 3.06147 -7.39104 0
    endloop
  endfacet
  facet normal 0 0 -1
    outer loop
      vertex 2.07055 -7.72741 0
      vertex 2.07055 7.72741 0
      vertex 3.06147 7.39104 0
    endloop
  endfacet
  facet normal 0 0 -1
    outer loop
      vertex 1.04421 -7.93156 0
      vertex 2.07055 7.72741 0
      vertex 2.07055 -7.72741 0
    endloop
  endfacet
  facet normal 0 0 -1
    outer loop
      vertex 1.04421 -7.93156 0
      vertex 1.04421 7.93156 0
      vertex 2.07055 7.72741 0
    endloop
  endfacet
  facet normal 0 0 -1
    outer loop
      vertex -0 -8 0
      vertex 1.04421 7.93156 0
      vertex 1.04421 -7.93156 0
    endloop
  endfacet
  facet normal 0 0 -1
    outer loop
      vertex -0 -8 0
      vertex 0 8 0
      vertex 1.04421 7.93156 0
    endloop
  endfacet
  facet normal 0 0 -1
    outer loop
      vertex -1.04421 -7.93156 0
      vertex 0 8 0
      vertex -0 -8 0
    endloop
  endfacet
  facet normal 0 0 -1
    outer loop
      vertex -1.04421 -7.93156 0
      vertex -1.04421 7.93156 0
      vertex 0 8 0
    endloop
  endfacet
  facet normal 0 0 -1
    outer loop
      vertex -2.07055 -7.72741 0
      vertex -1.04421 7.93156 0
      vertex -1.04421 -7.93156 0
    endloop
  endfacet
  facet normal 0 0 -1
    outer loop
      vertex -2.07055 -7.72741 0
      vertex -2.07055 7.72741 0
      vertex -1.04421 7.93156 0
    endloop
  endfacet
  facet normal 0 0 -1
    outer loop
      vertex -3.06147 -7.39104 0
      vertex -2.07055 7.72741 0
      vertex -2.07055 -7.72741 0
    endloop
  endfacet
  facet normal 0 0 -1
    outer loop
      vertex -3.06147 -7.39104 0
      vertex -3.06147 7.39104 0
      vertex -2.07055 7.72741 0
    endloop
  endfacet
  facet normal 0 0 -1
    outer loop
      vertex -4 -6.9282 0
      vertex -3.06147 7.39104 0
      vertex -3.06147 -7.39104 0
    endloop
  endfacet
  facet normal 0 0 -1
    outer loop
      vertex -4 -6.9282 0
      vertex -4 6.9282 0
      vertex -3.06147 7.39104 0
    endloop
  endfacet
  facet normal 0 0 -1
    outer loop
      vertex -4.87009 -6.34683 0
      vertex -4 6.9282 0
      vertex -4 -6.9282 0
    endloop
  endfacet
  facet normal 0 0 -1
    outer loop
      vertex -4.87009 -6.34683 0
      vertex -4.87009 6.34683 0
      vertex -4 6.9282 0
    endloop
  endfacet
  facet normal 0 0 -1
    outer loop
      vertex -5.65685 -5.65685 0
      vertex -4.87009 6.34683 0
      vertex -4.87009 -6.34683 0
    endloop
  endfacet
  facet normal 0 0 -1
    outer loop
      vertex -5.65685 -5.65685 0
      vertex -5.65685 5.65685 0
      vertex -4.87009 6.34683 0
    endloop
  endfacet
  facet normal 0 0 -1
    outer loop
      vertex -6.34683 -4.87009 0
      vertex -5.65685 5.65685 0
      vertex -5.65685 -5.65685 0
    endloop
  endfacet
  facet normal 0 0 -1
    outer loop
      vertex -6.34683 -4.87009 0
      vertex -6.34683 4.87009 0
      vertex -5.65685 5.65685 0
    endloop
  endfacet
  facet normal 0 0 -1
    outer loop
      vertex -6.9282 -4 0
      vertex -6.34683 4.87009 0
      vertex -6.34683 -4.87009 0
    endloop
  endfacet
  facet normal 0 0 -1
    outer loop
      vertex -6.9282 -4 0
      vertex -6.9282 4 0
      vertex -6.34683 4.87009 0
    endloop
  endfacet
  facet normal 0 0 -1
    outer loop
      vertex -7.39104 -3.06147 0
      vertex -6.9282 4 0
      vertex -6.9282 -4 0
    endloop
  endfacet
  facet normal 0 0 -1
    outer loop
      vertex -7.39104 -3.06147 0
      vertex -7.39104 3.06147 0
      vertex -6.9282 4 0
    endloop
  endfacet
  facet normal 0 0 -1
    outer loop
      vertex -7.72741 -2.07055 0
      vertex -7.39104 3.06147 0
      vertex -7.39104 -3.06147 0
    endloop
  endfacet
  facet normal 0 0 -1
    outer loop
      vertex -7.72741 -2.07055 0
      vertex -7.72741 2.07055 0
      vertex -7.39104 3.06147 0
    endloop
  endfacet
  facet normal 0 0 -1
    outer loop
      vertex -7.93156 -1.04421 0
      vertex -7.72741 2.07055 0
      vertex -7.72741 -2.07055 0
    endloop
  endfacet
  facet normal 0 0 -1
    outer loop
      vertex -7.93156 -1.04421 0
      vertex -7.93156 1.04421 0
      vertex -7.72741 2.07055 0
    endloop
  endfacet
  facet normal 0 -0 -1
    outer loop
      vertex -7.93156 1.04421 0
      vertex -7.93156 -1.04421 0
      vertex -8 -0 0
    endloop
  endfacet
  facet normal 0 0 1
    outer loop
      vertex 7.93156 1.04421 3
      vertex 7.93156 -1.04421 3
      vertex 8 0 3
    endloop
  endfacet
  facet normal 0 0 1
    outer loop
      vertex 7.72741 2.07055 3
      vertex 7.93156 -1.04421 3
      vertex 7.93156 1.04421 3
    endloop
  endfacet
  facet normal 0 0 1
    outer loop
      vertex 7.72741 2.07055 3
      vertex 7.72741 -2.07055 3
      vertex 7.93156 -1.04421 3
    endloop
  endfacet
  facet normal 0 0 1
    outer loop
      vertex 7.39104 3.06147 3
      vertex 7.72741 -2.07055 3
      vertex 7.72741 2.07055 3
    endloop
  endfacet
  facet normal 0 0 1
    outer loop
      vertex 7.39104 3.06147 3
      vertex 7.39104 -3.06147 3
      vertex 7.72741 -2.07055 3
    endloop
  endfacet
  facet normal 0 0 1
    outer loop
      vertex 6.9282 4 3
      vertex 7.39104 -3.06147 3
      vertex 7.39104 3.06147 3
    endloop
  endfacet
  facet normal 0 0 1
    outer loop
      vertex 6.9282 4 3
      vertex 6.9282 -4 3
      vertex 7.39104 -3.06147 3
    endloop
  endfacet
  facet normal 0 0 1
    outer loop
      vertex 6.34683 4.87009 3
      vertex 6.9282 -4 3
      vertex 6.9282 4 3
    endloop
  endfacet
  facet normal 0 0 1
    outer loop
      vertex 6.34683 4.87009 3
      vertex 6.34683 -4.87009 3
      vertex 6.9282 -4 3
    endloop
  endfacet
  facet normal 0 0 1
    outer loop
      vertex 5.65685 5.65685 3
      vertex 6.34683 -4.87009 3
      vertex 6.34683 4.87009 3
    endloop
  endfacet
  facet normal 0 0 1
    outer loop
      vertex 5.65685 5.65685 3
      vertex 5.65685 -5.65685 3
      vertex 6.34683 -4.87009 3
    endloop
  endfacet
  facet normal 0 0 1
    outer loop
      vertex 4.87009 6.34683 3
      vertex 5.65685 -5.65685 3
      vertex 5.65685 5.65685 3
    endloop
  endfacet
  facet normal 0 0 1
    outer loop
      vertex 4.87009 6.34683 3
      vertex 4.87009 -6.34683 3
      vertex 5.65685 -5.65685 3
    endloop
  endfacet
  facet normal 0 0 1
    outer loop
      vertex 4 6.9282 3
      vertex 4.87009 -6.34683 3
      vertex 4.87009 6.34683 3
    endloop
  endfacet
  facet normal 0 0 1
    outer loop
      vertex 4 6.9282 3
      vertex 4 -6.9282 3
      vertex 4.87009 -6.34683 3
    endloop
  endfacet
  facet normal 0 0 1
    outer loop
      vertex 3.06147 7.39104 3
      vertex 4 -6.9282 3
      vertex 4 6.9282 3
    endloop
  endfacet
  facet normal 0 0 1
    outer loop
      vertex 3.06147 7.39104 3
      vertex 3.06147 -7.39104 3
      vertex 4 -6.9282 3
    endloop
  endfacet
  facet normal 0 0 1
    outer loop
      vertex 2.07055 7.72741 3
      vertex 3.06147 -7.39104 3
      vertex 3.06147 7.39104 3
    endloop
  endfacet
  facet normal 0 0 1
    outer loop
      vertex 2.07055 7.72741 3
      vertex 2.07055 -7.72741 3
      vertex 3.06147 -7.39104 3
    endloop
  endfacet
  facet normal 0 0 1
    outer loop
      vertex 1.04421 7.93156 3
      vertex 2.07055 -7.72741 3
      vertex 2.07055 7.72741 3
    endloop
  endfacet
  facet normal 0 0 1
    outer loop
      vertex 1.04421 7.93156 3
      vertex 1.04421 -7.93156 3
      vertex 2.07055 -7.72741 3
    endloop
  endfacet
  facet normal 0 0 1
    outer loop
      vertex 0 8 3
      vertex 1.04421 -7.93156 3
      vertex 1.04421 7.93156 3
    endloop
  endfacet
  facet normal 0 0 1
    outer loop
      vertex 0 8 3
      vertex -0 -8 3
      vertex 1.04421 -7.93156 3
    endloop
  endfacet
  facet normal -0 0 1
    outer loop
      vertex -1.04421 7.93156 3
      vertex -0 -8 3
      vertex 0 8 3
    endloop
  endfacet
  facet normal 0 0 1
    outer loop
      vertex -1.04421 7.93156 3
      vertex -1.04421 -7.93156 3
      vertex -0 -8 3
    endloop
  endfacet
  facet normal -0 0 1
    outer loop
      vertex -2.07055 7.72741 3
      vertex -1.04421 -7.93156 3
      vertex -1.04421 7.93156 3
    endloop
  endfacet
  facet normal 0 0 1
    outer loop
      vertex -2.07055 7.72741 3
      vertex -2.07055 -7.72741 3
      vertex -1.04421 -7.93156 3
    endloop
  endfacet
  facet normal -0 0 1
    outer loop
      vertex -3.06147 7.39104 3
      vertex -2.07055 -7.72741 3
      vertex -2.07055 7.72741 3
    endloop
  endfacet
  facet normal 0 0 1
    outer loop
      vertex -3.06147 7.39104 3
      vertex -3.06147 -7.39104 3
      vertex -2.07055 -7.72741 3
    endloop
  endfacet
  facet normal -0 0 1
    outer loop
      vertex -4 6.9282 3
      vertex -3.06147 -7.39104 3
      vertex -3.06147 7.39104 3
    endloop
  endfacet
  facet normal 0 0 1
    outer loop
      vertex -4 6.9282 3
      vertex -4 -6.9282 3
      vertex -3.06147 -7.39104 3
    endloop
  endfacet
  facet normal -0 0 1
    outer loop
      vertex -4.87009 6.34683 3
      vertex -4 -6.9282 3
      vertex -4 6.9282 3
    endloop
  endfacet
  facet normal 0 0 1
    outer loop
      vertex -4.87009 6.34683 3
      vertex -4.87009 -6.34683 3
      vertex -4 -6.9282 3
    endloop
  endfacet
  facet normal -0 0 1
    outer loop
      vertex -5.65685 5.65685 3
      vertex -4.87009 -6.34683 3
      vertex -4.87009 6.34683 3
    endloop
  endfacet
  facet normal 0 0 1
    outer loop
      vertex -5.65685 5.65685 3
      vertex -5.65685 -5.65685 3
      vertex -4.87009 -6.34683 3
    endloop
  endfacet
  facet normal -0 0 1
    outer loop
      vertex -6.34683 4.87009 3
      vertex -5.65685 -5.65685 3
      vertex -5.65685 5.65685 3
    endloop
  endfacet
  facet normal 0 0 1
    outer loop
      vertex -6.34683 4.87009 3
      vertex -6.34683 -4.87009 3
      vertex -5.65685 -5.65685 3
    endloop
  endfacet
  facet normal -0 0 1
    outer loop
      vertex -6.9282 4 3
      vertex -6.34683 -4.87009 3
      vertex -6.34683 4.87009 3
    endloop
  endfacet
  facet normal 0 0 1
    outer loop
      vertex -6.9282 4 3
      vertex -6.9282 -4 3
      vertex -6.34683 -4.87009 3
    endloop
  endfacet
  facet normal -0 0 1
    outer loop
      vertex -7.39104 3.06147 3
      vertex -6.9282 -4 3
      vertex -6.9282 4 3
    endloop
  endfacet
  facet normal 0 0 1
    outer loop
      vertex -7.39104 3.06147 3
      vertex -7.39104 -3.06147 3
      vertex -6.9282 -4 3
    endloop
  endfacet
  facet normal -0 0 1
    outer loop
      vertex -7.72741 2.07055 3
      vertex -7.39104 -3.06147 3
      vertex -7.39104 3.06147 3
    endloop
  endfacet
  facet normal 0 0 1
    outer loop
      vertex -7.72741 2.07055 3
      vertex -7.72741 -2.07055 3
      vertex -7.39104 -3.06147 3
    endloop
  endfacet
  facet normal -0 0 1
    outer loop
      vertex -7.93156 1.04421 3
      vertex -7.72741 -2.07055 3
      vertex -7.72741 2.07055 3
    endloop
  endfacet
  facet normal 0 0 1
    outer loop
      vertex -7.93156 1.04421 3
      vertex -7.93156 -1.04421 3
      vertex -7.72741 -2.07055 3
    endloop
  endfacet
  facet normal 0 -0 1
    outer loop
      vertex -7.93156 -1.04421 3
      vertex -7.93156 1.04421 3
      vertex -8 -0 3
    endloop
  endfacet
endsolid OpenSCAD_Model
